<svg xmlns="http://www.w3.org/2000/svg" width="640" height="300" viewBox="0 0 640 300" role="img" aria-label="Profile Stats — Morningstar202604"><defs><linearGradient id="bg" x1="0" y1="0" x2="0" y2="1"><stop offset="0" stop-color="#0B1026"/><stop offset="1" stop-color="#131D38"/></linearGradient><radialGradient id="glow" cx="0.5" cy="0.5" r="0.75"><stop offset="0" stop-color="#C9A86A" stop-opacity="0.16"/><stop offset="1" stop-color="#0B1026" stop-opacity="0"/></radialGradient></defs><rect width="640" height="300" fill="url(#bg)"/><rect width="640" height="300" fill="url(#glow)"/><circle cx="24" cy="30" r="1.4" fill="#F5F0E6" opacity="0.35"/><circle cx="47" cy="74" r="1.1" fill="#F5F0E6" opacity="0.35"/><circle cx="72" cy="28" r="1.5" fill="#F5F0E6" opacity="0.35"/><circle cx="95" cy="58" r="1.2" fill="#F5F0E6" opacity="0.35"/><circle cx="121" cy="88" r="1" fill="#F5F0E6" opacity="0.35"/><circle cx="148" cy="42" r="1.3" fill="#F5F0E6" opacity="0.35"/><circle cx="172" cy="70" r="1.1" fill="#F5F0E6" opacity="0.35"/><circle cx="196" cy="32" r="1.5" fill="#F5F0E6" opacity="0.35"/><circle cx="221" cy="64" r="1.2" fill="#F5F0E6" opacity="0.35"/><circle cx="247" cy="24" r="1" fill="#F5F0E6" opacity="0.35"/><circle cx="269" cy="82" r="1.4" fill="#F5F0E6" opacity="0.35"/><circle cx="294" cy="46" r="1.1" fill="#F5F0E6" opacity="0.35"/><circle cx="318" cy="26" r="1.5" fill="#F5F0E6" opacity="0.35"/><circle cx="343" cy="76" r="1.2" fill="#F5F0E6" opacity="0.35"/><circle cx="369" cy="52" r="1" fill="#F5F0E6" opacity="0.35"/><circle cx="394" cy="34" r="1.4" fill="#F5F0E6" opacity="0.35"/><circle cx="419" cy="72" r="1.1" fill="#F5F0E6" opacity="0.35"/><circle cx="445" cy="28" r="1.5" fill="#F5F0E6" opacity="0.35"/><circle cx="471" cy="60" r="1.2" fill="#F5F0E6" opacity="0.35"/><circle cx="495" cy="40" r="1" fill="#F5F0E6" opacity="0.35"/><circle cx="522" cy="78" r="1.4" fill="#F5F0E6" opacity="0.35"/><circle cx="546" cy="30" r="1.1" fill="#F5F0E6" opacity="0.35"/><circle cx="572" cy="64" r="1.5" fill="#F5F0E6" opacity="0.35"/><circle cx="597" cy="44" r="1.2" fill="#F5F0E6" opacity="0.35"/><circle cx="622" cy="34" r="1" fill="#F5F0E6" opacity="0.35"/><circle cx="34" cy="116" r="1" fill="#F5F0E6" opacity="0.35"/><circle cx="88" cy="108" r="1.3" fill="#F5F0E6" opacity="0.35"/><circle cx="141" cy="122" r="1.1" fill="#F5F0E6" opacity="0.35"/><circle cx="197" cy="106" r="1.4" fill="#F5F0E6" opacity="0.35"/><circle cx="252" cy="118" r="1" fill="#F5F0E6" opacity="0.35"/><circle cx="307" cy="108" r="1.3" fill="#F5F0E6" opacity="0.35"/><circle cx="364" cy="124" r="1.1" fill="#F5F0E6" opacity="0.35"/><circle cx="421" cy="104" r="1.4" fill="#F5F0E6" opacity="0.35"/><circle cx="478" cy="120" r="1" fill="#F5F0E6" opacity="0.35"/><circle cx="536" cy="110" r="1.3" fill="#F5F0E6" opacity="0.35"/><circle cx="596" cy="122" r="1.1" fill="#F5F0E6" opacity="0.35"/><circle cx="26" cy="164" r="1.2" fill="#F5F0E6" opacity="0.35"/><circle cx="79" cy="150" r="1" fill="#F5F0E6" opacity="0.35"/><circle cx="131" cy="174" r="1.3" fill="#F5F0E6" opacity="0.35"/><circle cx="186" cy="158" r="1.1" fill="#F5F0E6" opacity="0.35"/><circle cx="240" cy="170" r="1.2" fill="#F5F0E6" opacity="0.35"/><circle cx="296" cy="152" r="1" fill="#F5F0E6" opacity="0.35"/><circle cx="351" cy="176" r="1.3" fill="#F5F0E6" opacity="0.35"/><circle cx="406" cy="162" r="1.1" fill="#F5F0E6" opacity="0.35"/><circle cx="462" cy="172" r="1.2" fill="#F5F0E6" opacity="0.35"/><circle cx="518" cy="156" r="1" fill="#F5F0E6" opacity="0.35"/><circle cx="574" cy="168" r="1.3" fill="#F5F0E6" opacity="0.35"/><circle cx="622" cy="150" r="1.1" fill="#F5F0E6" opacity="0.35"/><circle cx="31" cy="210" r="1.1" fill="#F5F0E6" opacity="0.35"/><circle cx="83" cy="224" r="1.4" fill="#F5F0E6" opacity="0.35"/><circle cx="138" cy="206" r="1" fill="#F5F0E6" opacity="0.35"/><circle cx="193" cy="222" r="1.2" fill="#F5F0E6" opacity="0.35"/><circle cx="248" cy="210" r="1.1" fill="#F5F0E6" opacity="0.35"/><circle cx="303" cy="226" r="1.4" fill="#F5F0E6" opacity="0.35"/><circle cx="358" cy="208" r="1" fill="#F5F0E6" opacity="0.35"/><circle cx="413" cy="224" r="1.2" fill="#F5F0E6" opacity="0.35"/><circle cx="468" cy="212" r="1.1" fill="#F5F0E6" opacity="0.35"/><circle cx="524" cy="228" r="1.4" fill="#F5F0E6" opacity="0.35"/><circle cx="578" cy="214" r="1" fill="#F5F0E6" opacity="0.35"/><circle cx="631" cy="220" r="1.2" fill="#F5F0E6" opacity="0.35"/><circle cx="28" cy="262" r="1.3" fill="#F5F0E6" opacity="0.35"/><circle cx="82" cy="278" r="1.1" fill="#F5F0E6" opacity="0.35"/><circle cx="136" cy="260" r="1.2" fill="#F5F0E6" opacity="0.35"/><circle cx="191" cy="276" r="1" fill="#F5F0E6" opacity="0.35"/><circle cx="246" cy="264" r="1.3" fill="#F5F0E6" opacity="0.35"/><circle cx="301" cy="280" r="1.1" fill="#F5F0E6" opacity="0.35"/><circle cx="356" cy="262" r="1.2" fill="#F5F0E6" opacity="0.35"/><circle cx="411" cy="278" r="1" fill="#F5F0E6" opacity="0.35"/><circle cx="466" cy="266" r="1.3" fill="#F5F0E6" opacity="0.35"/><circle cx="521" cy="282" r="1.1" fill="#F5F0E6" opacity="0.35"/><circle cx="576" cy="264" r="1.2" fill="#F5F0E6" opacity="0.35"/><circle cx="631" cy="278" r="1" fill="#F5F0E6" opacity="0.35"/><rect x="0.5" y="0.5" width="639" height="299" fill="none" stroke="#243356" stroke-width="1"/><text x="30" y="40" font-family="'Segoe UI',Helvetica,Arial,'PingFang SC','Microsoft YaHei',sans-serif" font-size="15" font-weight="700" letter-spacing="2.5" fill="#E4C87F">PROFILE STATS</text><text x="610" y="40" text-anchor="end" font-family="'Segoe UI',Helvetica,Arial,'PingFang SC','Microsoft YaHei',sans-serif" font-size="11" fill="#7C87A3">更新于 2026-09-24</text><text x="30" y="64" font-family="'Segoe UI',Helvetica,Arial,'PingFang SC','Microsoft YaHei',sans-serif" font-size="17" font-weight="600" fill="#F5F0E6">Morningstar202604</text><line x1="30" y1="80" x2="610" y2="80" stroke="#243356" stroke-width="1"/><ellipse cx="320" cy="170" rx="300" ry="70" fill="none" stroke="#C9A86A" stroke-opacity="0.35" transform="rotate(-6 320 170)"/><ellipse cx="320" cy="170" rx="300" ry="70" fill="none" stroke="#C9A86A" stroke-opacity="0.35" transform="rotate(6 320 170)"/><ellipse cx="320" cy="170" rx="300" ry="52" fill="none" stroke="#C9A86A" stroke-opacity="0.35" transform="rotate(0 320 170)"/><text x="120" y="186" text-anchor="middle" font-family="'Segoe UI',Helvetica,Arial,'PingFang SC','Microsoft YaHei',sans-serif" font-size="34" font-weight="700" fill="#E4C87F">12</text><text x="120" y="212" text-anchor="middle" font-family="'Segoe UI',Helvetica,Arial,'PingFang SC','Microsoft YaHei',sans-serif" font-size="12" fill="#9AA3B5">关注者</text><circle cx="120" cy="228" r="2" fill="#C9A86A"/><text x="320" y="186" text-anchor="middle" font-family="'Segoe UI',Helvetica,Arial,'PingFang SC','Microsoft YaHei',sans-serif" font-size="34" font-weight="700" fill="#E4C87F">19</text><text x="320" y="212" text-anchor="middle" font-family="'Segoe UI',Helvetica,Arial,'PingFang SC','Microsoft YaHei',sans-serif" font-size="12" fill="#9AA3B5">公开仓库</text><circle cx="320" cy="228" r="2" fill="#C9A86A"/><text x="520" y="186" text-anchor="middle" font-family="'Segoe UI',Helvetica,Arial,'PingFang SC','Microsoft YaHei',sans-serif" font-size="34" font-weight="700" fill="#E4C87F">12</text><text x="520" y="212" text-anchor="middle" font-family="'Segoe UI',Helvetica,Arial,'PingFang SC','Microsoft YaHei',sans-serif" font-size="12" fill="#9AA3B5">已合并 PR</text><circle cx="520" cy="228" r="2" fill="#C9A86A"/><text x="30" y="276" font-family="'Segoe UI',Helvetica,Arial,'PingFang SC','Microsoft YaHei',sans-serif" font-size="10.5" fill="#6E7893">数据来源 GitHub API · 每日自动刷新 · 零服务器</text></svg>